<svg xmlns="http://www.w3.org/2000/svg" style="display: none;">
  
    <symbol id="icon-giant-eye" viewBox="0 0 512 512">
      <path d="m237 54c0 0 2 1 4 3 2 2 6 5 10 9 4 4 9 10 13 17 5 7 10 15 14 25 5 10 8 21 12 32 3 12 6 25 8 37 0 1 0 2 0 3-12-2-25-4-37-4-15 0-30 2-44 6 1-4 3-8 5-12 9-21 16-40 19-57 2-8 2-16 2-23 0-7 0-14-1-19-2-11-5-17-5-17z m-209 94c0 0-1 1-2 4 0 2-2 6-3 11-1 5-2 11-2 19 0 7 1 16 2 25 2 9 4 19 8 29 3 10 7 21 11 31 3 6 5 13 8 19 16-18 35-36 56-53-4-3-8-5-11-8-17-10-31-21-42-32-5-6-9-11-13-16-3-6-6-11-8-15-3-9-4-14-4-14z m485 14c0 0-1 0-4 1-2 0-6 0-11 1-5 1-10 3-17 5-6 3-13 7-20 12-8 4-15 10-23 16-7 7-15 14-22 22-2 2-4 5-7 7 23 20 43 41 57 59 2-13 3-26 5-37 3-18 7-34 13-47 2-7 5-12 9-17 3-5 6-9 9-12 6-7 11-10 11-10z m-252 35c-120 0-216 153-216 153 0 0 96 152 216 152 119 0 216-152 216-152 0 0-97-153-216-153z m2 49c64 0 117 52 117 117 0 64-53 116-117 116-64 0-117-52-117-116 0-65 53-117 117-117z m-1 58c-33 0-60 27-60 60 0 32 27 59 60 59 32 0 59-27 59-59 0-33-27-60-59-60z"/>
    </symbol>
  
</svg>
